<svg version="1.1" id="Layer_1" xmlns="http://www.w3.org/2000/svg" xmlns:xlink="http://www.w3.org/1999/xlink" x="0px" y="0px" viewBox="0 0 201 30" style="enable-background:new 0 0 201 30;" xml:space="preserve" role="img" aria-label="Logo" aria-labelledby="mw-logo-title mw-logo-desc">
             <title id="mw-logo-title">MW Anniversary Logo</title>
             <desc id="mw-logo-desc">Go to the homepage.</desc>
          <style type="text/css">
          	.st0{clip-path:url(#SVGID_00000038385395431433194400000016247355810988764043_);fill:#48A838;}
          	.st1{clip-path:url(#SVGID_00000038385395431433194400000016247355810988764043_);fill:#FFFFFF;}
          	.st2{fill:#FFFFFF;}
          	.st3{fill:#48A838;}
          </style>
          <g>
          	<g>
          		<defs>
          			<rect id="SVGID_1_" width="25.5" height="30"></rect>
          		</defs>
          		<clipPath id="SVGID_00000090973009254462369120000017688457549580667287_">
          			<use xlink:href="#SVGID_1_" style="overflow:visible;"></use>
          		</clipPath>
          		<path style="clip-path:url(#SVGID_00000090973009254462369120000017688457549580667287_);fill:#48A838;" d="M17.1,7.6
          			c-0.1-1.4-0.6-2.6-1.2-3.7l-3.7,3.7H17.1z"></path>
          		<path style="clip-path:url(#SVGID_00000090973009254462369120000017688457549580667287_);fill:#48A838;" d="M15.3,3.1
          			C13.7,1.2,11.3,0,8.7,0c-4.4,0-8,3.4-8.3,7.6h10.5L15.3,3.1z"></path>
          		<path style="clip-path:url(#SVGID_00000090973009254462369120000017688457549580667287_);fill:#FFFFFF;" d="M25.5,22.3
          			c0-4.2-3.5-7.6-7.7-7.6V30C22,29.9,25.5,26.5,25.5,22.3z"></path>
          		<path style="clip-path:url(#SVGID_00000090973009254462369120000017688457549580667287_);fill:#FFFFFF;" d="M16.7,14.6h-5.1v5.1
          			h5.1V14.6z"></path>
          		<path style="clip-path:url(#SVGID_00000090973009254462369120000017688457549580667287_);fill:#48A838;" d="M0,19.8h10.7V9.1
          			L0,19.8z"></path>
          		<path style="clip-path:url(#SVGID_00000090973009254462369120000017688457549580667287_);fill:#FFFFFF;" d="M22.5,8.6h-11v5.1h11
          			V8.6z"></path>
          		<path style="clip-path:url(#SVGID_00000090973009254462369120000017688457549580667287_);fill:#FFFFFF;" d="M2,25.6V27H1.3v-1.4
          			L0,23.4h0.6c0.1,0,0.1,0,0.1,0c0,0,0.1,0.1,0.1,0.1l0.7,1.2c0,0.1,0.1,0.1,0.1,0.2c0,0.1,0.1,0.1,0.1,0.2c0-0.1,0-0.1,0.1-0.2
          			c0-0.1,0.1-0.1,0.1-0.2l0.7-1.2c0,0,0-0.1,0.1-0.1c0,0,0.1,0,0.1,0h0.6L2,25.6z M5.9,23.4v0.5H4.3v1h1.3v0.5H4.3v1h1.6V27H3.6
          			v-3.6H5.9z M9.7,27H9.2C9.1,27,9,27,9,27c0,0-0.1-0.1-0.1-0.1l-0.3-0.7H7.2l-0.3,0.7c0,0,0,0.1-0.1,0.1c0,0-0.1,0-0.1,0H6.1
          			l1.4-3.6h0.7L9.7,27z M7.3,25.6h1.2L8,24.4c0-0.1,0-0.1-0.1-0.2c0-0.1,0-0.2-0.1-0.2c0,0.1,0,0.2-0.1,0.2c0,0.1,0,0.1-0.1,0.2
          			L7.3,25.6z M10.7,25.6V27h-0.7v-3.6h1.1c0.2,0,0.5,0,0.6,0.1c0.2,0.1,0.3,0.1,0.4,0.2c0.1,0.1,0.2,0.2,0.2,0.3
          			c0.1,0.1,0.1,0.3,0.1,0.4c0,0.1,0,0.2-0.1,0.3c0,0.1-0.1,0.2-0.2,0.3c-0.1,0.1-0.1,0.2-0.2,0.2c-0.1,0.1-0.2,0.1-0.3,0.2
          			c0.1,0,0.2,0.1,0.2,0.2l0.9,1.3h-0.6c-0.1,0-0.1,0-0.1,0c0,0-0.1-0.1-0.1-0.1l-0.8-1.2c0,0-0.1-0.1-0.1-0.1c0,0-0.1,0-0.2,0H10.7z
          			 M10.7,25.1h0.4c0.1,0,0.2,0,0.3,0c0.1,0,0.2-0.1,0.2-0.1c0.1-0.1,0.1-0.1,0.1-0.2c0-0.1,0-0.2,0-0.3c0-0.2-0.1-0.3-0.2-0.4
          			c-0.1-0.1-0.3-0.1-0.6-0.1h-0.4V25.1z M15.3,24C15.2,24.1,15.2,24.1,15.3,24c-0.1,0.1-0.1,0.1-0.2,0.1c0,0-0.1,0-0.1,0
          			c0,0-0.1-0.1-0.1-0.1c-0.1,0-0.1-0.1-0.2-0.1c-0.1,0-0.2,0-0.3,0c-0.1,0-0.2,0-0.2,0C14.1,23.9,14,24,14,24c0,0-0.1,0.1-0.1,0.1
          			c0,0.1,0,0.1,0,0.2c0,0.1,0,0.2,0.1,0.2c0,0.1,0.1,0.1,0.2,0.1c0.1,0,0.2,0.1,0.3,0.1c0.1,0,0.2,0.1,0.3,0.1
          			c0.1,0,0.2,0.1,0.3,0.1c0.1,0,0.2,0.1,0.3,0.2c0.1,0.1,0.1,0.2,0.2,0.3c0,0.1,0.1,0.2,0.1,0.4c0,0.2,0,0.3-0.1,0.5
          			c-0.1,0.1-0.1,0.3-0.2,0.4c-0.1,0.1-0.2,0.2-0.4,0.2C14.6,27,14.4,27,14.2,27c-0.1,0-0.2,0-0.3,0c-0.1,0-0.2-0.1-0.3-0.1
          			c-0.1,0-0.2-0.1-0.3-0.1c-0.1-0.1-0.2-0.1-0.2-0.2l0.2-0.3c0,0,0,0,0.1-0.1c0,0,0.1,0,0.1,0c0,0,0.1,0,0.1,0.1
          			c0,0,0.1,0.1,0.2,0.1c0.1,0,0.1,0.1,0.2,0.1c0.1,0,0.2,0,0.3,0c0.2,0,0.3,0,0.4-0.1c0.1-0.1,0.2-0.2,0.2-0.4c0-0.1,0-0.2-0.1-0.2
          			c0-0.1-0.1-0.1-0.2-0.1c-0.1,0-0.2-0.1-0.3-0.1c-0.1,0-0.2-0.1-0.3-0.1s-0.2-0.1-0.3-0.1c-0.1,0-0.2-0.1-0.3-0.2
          			c-0.1-0.1-0.1-0.2-0.2-0.3c0-0.1-0.1-0.3-0.1-0.4c0-0.1,0-0.3,0.1-0.4c0.1-0.1,0.1-0.2,0.2-0.3c0.1-0.1,0.2-0.2,0.4-0.2
          			c0.1-0.1,0.3-0.1,0.5-0.1c0.2,0,0.4,0,0.6,0.1c0.2,0.1,0.3,0.2,0.5,0.3L15.3,24z"></path>
          	</g>
          	<path class="st2" d="M71.2,12l-0.3,1.4h-0.1c-0.4-0.8-1.4-1.9-3.6-1.9c-3.6,0-7.3,2.8-8.1,7.2c-0.7,3.9,1.2,7.2,5.5,7.2
          		c1.6,0,3.4-0.6,4.3-1.9H69l-0.2,1.4h4l2.5-13.5L71.2,12z M69.9,18.8c-0.2,1.3-1.5,3.5-4,3.5c-2.5,0-3-2.1-2.7-3.4
          		c0.3-1.5,1.7-3.5,4-3.5C69.5,15.4,70.2,17.1,69.9,18.8z"></path>
          	<path class="st2" d="M77.5,12h3.8L81,13.5h0.1c0.5-0.7,1.4-1.9,3.7-1.9L84,15.7c-1.9,0-3.3,0.4-3.6,2.5L79,25.5h-4L77.5,12z"></path>
          	<path class="st2" d="M87.5,6.8h4l-1.9,10.1h0.1l4.7-4.9h4.8L92.9,18l3.6,7.6h-4.6L89.3,19h-0.1l-1.2,6.5H84L87.5,6.8z"></path>
          	<path class="st2" d="M105.6,11.6c-4.1,0-7.7,3.5-8.4,7.3c-0.7,4,2,7.1,5.8,7.1c1.4,0,2.8-0.4,4-1.2c1.3-0.8,2.4-1.9,3.4-3.4h-4.1
          		c-0.7,0.7-1.4,1.2-2.7,1.2c-1.6,0-2.7-0.9-2.7-2.5h10.1c0.1-0.3,0.2-0.5,0.3-1.1C112.1,14.8,109.7,11.6,105.6,11.6z M101.5,17.3
          		c0.3-0.8,1.4-2.3,3.5-2.3s2.6,1.5,2.6,2.3H101.5z"></path>
          	<path class="st2" d="M53.8,6.8l-7.1,10.7h-0.1V6.8h-3.4L30.5,25.5h4.9l7.1-10.7h0.1v10.7H46l7.1-10.7h0.1v10.7h4V6.8H53.8z"></path>
          	<path class="st2" d="M121.6,12h-2.5l0.7-4h-3.6L116,9.6c-0.3,1.8-1.4,2.3-2.9,2.4h0l-0.6,3h2l-1.9,10.4h4l1.9-10.4h2.6L121.6,12z"></path>
          	<path class="st3" d="M184.1,20.4c-1.3,3-4.5,5.6-8.1,5.6c-4.1,0-6.6-3.2-5.9-7.2c0.7-4,4.4-7.2,8.5-7.2c3.6,0,6,2.4,6.1,5.7h-4.1
          		c-0.2-0.9-0.9-1.9-2.6-1.9c-1.9-0.1-3.5,1.5-3.8,3.4c-0.4,2,0.6,3.4,2.6,3.4c1.7,0,2.7-1,3.3-1.8H184.1z M150.6,2l-7.8,4.8h2.2
          		l-7.1,10.7h-0.1V6.8h-3.5l-7.1,10.7h-0.1V6.8h-4v18.7h3.5l7.1-10.7h0.1v10.7h3.5l12.6-18.7h2L150.6,2z M158.3,25.5h-4l0.2-1.4h-0.1
          		c-0.9,1.3-2.7,1.9-4.3,1.9c-4.3,0-6.2-3.4-5.5-7.2c0.8-4.4,4.5-7.2,8.1-7.2c2.2,0,3.3,1.1,3.6,1.9h0.1l0.3-1.4h4L158.3,25.5z
          		 M151.5,22.2c2.5,0,3.8-2.1,4-3.5c0.3-1.6-0.5-3.4-2.8-3.4c-2.3,0-3.7,1.9-4,3.5C148.5,20.1,149,22.2,151.5,22.2z M170.9,12h-2.5
          		l0.7-4h-3.6l-0.3,1.5c-0.3,1.8-1.4,2.3-2.9,2.4h0l-0.6,3h2l-1.9,10.4h4l1.9-10.4h2.6L170.9,12z M187.9,6.8h4l-1.2,6.7h0.1
          		c0.9-1.3,2-1.9,3.8-1.9c1.3,0,2.7,0.5,3.4,1.5c0.9,1.3,0.8,2.5,0.3,4.9l-1.4,7.5h-4l1.4-7.3c0.1-0.7,0.5-2.8-1.7-2.8
          		c-2.2,0-2.6,2-2.8,2.7l-1.4,7.5h-4L187.9,6.8z"></path>
          	<path class="st3" d="M199.7,23.1c0.7,0,1.2,0.6,1.2,1.2c0,0.7-0.5,1.2-1.2,1.2c-0.7,0-1.2-0.5-1.2-1.2
          		C198.5,23.7,199,23.1,199.7,23.1z M199.7,23.3c-0.6,0-1,0.5-1,1c0,0.5,0.5,1,1,1c0.6,0,1-0.5,1-1S200.3,23.3,199.7,23.3z
          		 M199.8,23.6c0.2,0,0.5,0.1,0.5,0.4c0,0.1,0,0.2-0.2,0.3c0.1,0,0.2,0.1,0.2,0.3c0,0.2,0,0.3,0,0.3H200c0,0,0-0.2,0-0.3
          		c0-0.1,0-0.2-0.3-0.2h-0.2V25h-0.3v-1.4H199.8z M199.5,23.8v0.4h0.2c0.1,0,0.3,0,0.3-0.2c0-0.2-0.2-0.2-0.3-0.2H199.5z"></path>
          </g>
          </svg>